<mxfile host="app.diagrams.net" modified="2020-12-03T23:08:40.140Z" agent="5.0 (X11)" etag="MFsy-adYXdn112Q_Ez5l" version="13.10.7" type="github">
  <diagram id="df4LoSMx6PirMKs4pR7R" name="Page-1">
    <mxGraphModel dx="868" dy="487" grid="1" gridSize="10" guides="1" tooltips="1" connect="1" arrows="1" fold="1" page="1" pageScale="1" pageWidth="850" pageHeight="1100" math="0" shadow="0">
      <root>
        <mxCell id="0" />
        <mxCell id="1" parent="0" />
        <mxCell id="53Ct0VY88A1SnN8FUH9h-3" style="edgeStyle=orthogonalEdgeStyle;rounded=0;orthogonalLoop=1;jettySize=auto;html=1;exitX=1;exitY=0.5;exitDx=0;exitDy=0;exitPerimeter=0;" edge="1" parent="1" source="53Ct0VY88A1SnN8FUH9h-1" target="53Ct0VY88A1SnN8FUH9h-2">
          <mxGeometry relative="1" as="geometry" />
        </mxCell>
        <mxCell id="53Ct0VY88A1SnN8FUH9h-1" value="" style="shape=or;whiteSpace=wrap;html=1;" vertex="1" parent="1">
          <mxGeometry x="140" y="70" width="60" height="80" as="geometry" />
        </mxCell>
        <mxCell id="53Ct0VY88A1SnN8FUH9h-2" value="" style="rounded=1;whiteSpace=wrap;html=1;" vertex="1" parent="1">
          <mxGeometry x="380" y="80" width="120" height="60" as="geometry" />
        </mxCell>
        <mxCell id="53Ct0VY88A1SnN8FUH9h-5" style="edgeStyle=orthogonalEdgeStyle;rounded=0;orthogonalLoop=1;jettySize=auto;html=1;exitX=1;exitY=0.5;exitDx=0;exitDy=0;" edge="1" parent="1" source="53Ct0VY88A1SnN8FUH9h-4" target="53Ct0VY88A1SnN8FUH9h-2">
          <mxGeometry relative="1" as="geometry" />
        </mxCell>
        <mxCell id="53Ct0VY88A1SnN8FUH9h-4" value="" style="image;html=1;image=img/lib/clip_art/computers/Server_Rack_128x128.png" vertex="1" parent="1">
          <mxGeometry x="130" y="190" width="80" height="80" as="geometry" />
        </mxCell>
        <mxCell id="53Ct0VY88A1SnN8FUH9h-7" style="edgeStyle=orthogonalEdgeStyle;rounded=0;orthogonalLoop=1;jettySize=auto;html=1;exitX=1;exitY=0.5;exitDx=0;exitDy=0;entryX=0.058;entryY=0.033;entryDx=0;entryDy=0;entryPerimeter=0;" edge="1" parent="1" source="53Ct0VY88A1SnN8FUH9h-6" target="53Ct0VY88A1SnN8FUH9h-2">
          <mxGeometry relative="1" as="geometry">
            <Array as="points">
              <mxPoint x="120" y="40" />
              <mxPoint x="250" y="40" />
              <mxPoint x="250" y="20" />
              <mxPoint x="387" y="20" />
            </Array>
          </mxGeometry>
        </mxCell>
        <mxCell id="53Ct0VY88A1SnN8FUH9h-6" value="" style="image;html=1;image=img/lib/clip_art/telecommunication/Cellphone_128x128.png" vertex="1" parent="1">
          <mxGeometry x="40" y="50" width="80" height="80" as="geometry" />
        </mxCell>
      </root>
    </mxGraphModel>
  </diagram>
</mxfile>
